<mxfile host="Electron" modified="2023-09-03T15:37:15.085Z" agent="Mozilla/5.0 (Macintosh; Intel Mac OS X 10_15_7) AppleWebKit/537.36 (KHTML, like Gecko) draw.io/21.6.5 Chrome/114.0.5735.243 Electron/25.3.1 Safari/537.36" etag="9j-kLgmQOJpK1z0O4XZz" version="21.6.5" type="device">
  <diagram name="Page-1" id="b520641d-4fe3-3701-9064-5fc419738815">
    <mxGraphModel dx="1687" dy="999" grid="1" gridSize="10" guides="1" tooltips="1" connect="1" arrows="1" fold="1" page="1" pageScale="1" pageWidth="1100" pageHeight="850" background="none" math="0" shadow="0">
      <root>
        <mxCell id="0" />
        <mxCell id="1" parent="0" />
        <mxCell id="tDWq7TmDwjiiPGYqks4p-116" value="&lt;font style=&quot;font-size: 20px;&quot;&gt;クローズドコンテンツの画面フロー（ユーザ側）&lt;/font&gt;" style="text;html=1;align=left;verticalAlign=middle;resizable=0;points=[];autosize=1;strokeColor=none;fillColor=none;" parent="1" vertex="1">
          <mxGeometry x="30" y="40" width="460" height="40" as="geometry" />
        </mxCell>
        <mxCell id="tDWq7TmDwjiiPGYqks4p-117" value="対外コンテンツからリンク遷移" style="whiteSpace=wrap;html=1;" parent="1" vertex="1">
          <mxGeometry x="280" y="120" width="120" height="40" as="geometry" />
        </mxCell>
        <mxCell id="tDWq7TmDwjiiPGYqks4p-124" value="直リンク" style="whiteSpace=wrap;html=1;" parent="1" vertex="1">
          <mxGeometry x="120" y="120" width="120" height="40" as="geometry" />
        </mxCell>
        <mxCell id="tDWq7TmDwjiiPGYqks4p-130" value="【TOP(ログイン)】&lt;br&gt;トピック一覧表示" style="whiteSpace=wrap;html=1;" parent="1" vertex="1">
          <mxGeometry x="120" y="320" width="120" height="40" as="geometry" />
        </mxCell>
        <mxCell id="VPxTjBy3y0VzWbjlfLkC-1" value="" style="edgeStyle=none;orthogonalLoop=1;jettySize=auto;html=1;rounded=0;exitX=0.5;exitY=1;exitDx=0;exitDy=0;" edge="1" parent="1" source="tDWq7TmDwjiiPGYqks4p-124">
          <mxGeometry width="100" relative="1" as="geometry">
            <mxPoint x="180" y="205" as="sourcePoint" />
            <mxPoint x="180" y="200" as="targetPoint" />
          </mxGeometry>
        </mxCell>
        <mxCell id="VPxTjBy3y0VzWbjlfLkC-2" value="" style="edgeStyle=none;orthogonalLoop=1;jettySize=auto;html=1;rounded=0;exitX=0.5;exitY=1;exitDx=0;exitDy=0;" edge="1" parent="1" source="tDWq7TmDwjiiPGYqks4p-117">
          <mxGeometry width="100" relative="1" as="geometry">
            <mxPoint x="190" y="170" as="sourcePoint" />
            <mxPoint x="180" y="180" as="targetPoint" />
            <Array as="points">
              <mxPoint x="340" y="180" />
            </Array>
          </mxGeometry>
        </mxCell>
        <mxCell id="VPxTjBy3y0VzWbjlfLkC-3" value="ログイン&lt;br&gt;している" style="rhombus;whiteSpace=wrap;html=1;fontSize=12;" vertex="1" parent="1">
          <mxGeometry x="140" y="200" width="80" height="80" as="geometry" />
        </mxCell>
        <mxCell id="VPxTjBy3y0VzWbjlfLkC-4" value="" style="edgeStyle=none;orthogonalLoop=1;jettySize=auto;html=1;rounded=0;exitX=0.5;exitY=1;exitDx=0;exitDy=0;entryX=0.5;entryY=0;entryDx=0;entryDy=0;" edge="1" parent="1" source="VPxTjBy3y0VzWbjlfLkC-3" target="tDWq7TmDwjiiPGYqks4p-130">
          <mxGeometry width="100" relative="1" as="geometry">
            <mxPoint x="180" y="295" as="sourcePoint" />
            <mxPoint x="200" y="300" as="targetPoint" />
          </mxGeometry>
        </mxCell>
        <mxCell id="VPxTjBy3y0VzWbjlfLkC-5" value="【TOP(非ログイン)】&lt;br style=&quot;font-size: 11px;&quot;&gt;公開トピック一覧表示" style="whiteSpace=wrap;html=1;fontSize=11;" vertex="1" parent="1">
          <mxGeometry x="960" y="320" width="120" height="40" as="geometry" />
        </mxCell>
        <mxCell id="VPxTjBy3y0VzWbjlfLkC-6" value="" style="edgeStyle=none;orthogonalLoop=1;jettySize=auto;html=1;rounded=0;exitX=1;exitY=0.5;exitDx=0;exitDy=0;entryX=0.5;entryY=0;entryDx=0;entryDy=0;" edge="1" parent="1" source="VPxTjBy3y0VzWbjlfLkC-3" target="VPxTjBy3y0VzWbjlfLkC-5">
          <mxGeometry width="100" relative="1" as="geometry">
            <mxPoint x="339.55" y="265" as="sourcePoint" />
            <mxPoint x="339.55" y="305" as="targetPoint" />
            <Array as="points">
              <mxPoint x="1020" y="240" />
            </Array>
          </mxGeometry>
        </mxCell>
        <mxCell id="VPxTjBy3y0VzWbjlfLkC-7" value="&lt;font style=&quot;font-size: 10px;&quot;&gt;Yes&lt;/font&gt;" style="text;html=1;align=center;verticalAlign=middle;resizable=0;points=[];autosize=1;strokeColor=none;fillColor=none;fontSize=10;" vertex="1" parent="1">
          <mxGeometry x="140" y="280" width="40" height="30" as="geometry" />
        </mxCell>
        <mxCell id="VPxTjBy3y0VzWbjlfLkC-8" value="&lt;font style=&quot;font-size: 10px;&quot;&gt;No&lt;/font&gt;" style="text;html=1;align=center;verticalAlign=middle;resizable=0;points=[];autosize=1;strokeColor=none;fillColor=none;fontSize=10;" vertex="1" parent="1">
          <mxGeometry x="220" y="210" width="40" height="30" as="geometry" />
        </mxCell>
        <mxCell id="tDWq7TmDwjiiPGYqks4p-127" value="&lt;font style=&quot;font-size: 10px;&quot;&gt;初めてだと&lt;br&gt;何ができるかわからない&lt;br&gt;&lt;/font&gt;" style="ellipse;shape=cloud;whiteSpace=wrap;html=1;fillColor=#f5f5f5;fontColor=#333333;strokeColor=#666666;" parent="1" vertex="1">
          <mxGeometry x="900" y="458" width="170" height="50" as="geometry" />
        </mxCell>
        <mxCell id="tDWq7TmDwjiiPGYqks4p-128" value="&lt;font style=&quot;font-size: 9px;&quot;&gt;チュートリアル&lt;/font&gt;" style="ellipse;whiteSpace=wrap;html=1;fillColor=#fff2cc;strokeColor=#d6b656;" parent="1" vertex="1">
          <mxGeometry x="1020" y="458" width="80" height="20" as="geometry" />
        </mxCell>
        <mxCell id="VPxTjBy3y0VzWbjlfLkC-10" value="" style="edgeStyle=none;orthogonalLoop=1;jettySize=auto;html=1;rounded=0;exitX=0.5;exitY=1;exitDx=0;exitDy=0;entryX=0.5;entryY=0;entryDx=0;entryDy=0;" edge="1" parent="1" source="tDWq7TmDwjiiPGYqks4p-130" target="VPxTjBy3y0VzWbjlfLkC-11">
          <mxGeometry width="100" relative="1" as="geometry">
            <mxPoint x="180" y="365" as="sourcePoint" />
            <mxPoint x="180" y="390" as="targetPoint" />
          </mxGeometry>
        </mxCell>
        <mxCell id="VPxTjBy3y0VzWbjlfLkC-11" value="トピック新規作成&lt;br&gt;（入力）" style="whiteSpace=wrap;html=1;" vertex="1" parent="1">
          <mxGeometry x="120" y="419" width="120" height="40" as="geometry" />
        </mxCell>
        <mxCell id="VPxTjBy3y0VzWbjlfLkC-12" value="" style="edgeStyle=none;orthogonalLoop=1;jettySize=auto;html=1;rounded=0;exitX=0.5;exitY=1;exitDx=0;exitDy=0;entryX=0.5;entryY=0;entryDx=0;entryDy=0;" edge="1" parent="1" source="VPxTjBy3y0VzWbjlfLkC-5" target="VPxTjBy3y0VzWbjlfLkC-56">
          <mxGeometry width="100" relative="1" as="geometry">
            <mxPoint x="1019.55" y="365" as="sourcePoint" />
            <mxPoint x="1020" y="400" as="targetPoint" />
          </mxGeometry>
        </mxCell>
        <mxCell id="VPxTjBy3y0VzWbjlfLkC-13" value="" style="edgeStyle=none;orthogonalLoop=1;jettySize=auto;html=1;rounded=0;entryX=0.5;entryY=0;entryDx=0;entryDy=0;" edge="1" parent="1" target="VPxTjBy3y0VzWbjlfLkC-15">
          <mxGeometry width="100" relative="1" as="geometry">
            <mxPoint x="1020" y="380" as="sourcePoint" />
            <mxPoint x="1420" y="473" as="targetPoint" />
            <Array as="points">
              <mxPoint x="1337" y="380" />
            </Array>
          </mxGeometry>
        </mxCell>
        <mxCell id="VPxTjBy3y0VzWbjlfLkC-14" value="ログイン画面" style="whiteSpace=wrap;html=1;" vertex="1" parent="1">
          <mxGeometry x="1117" y="418" width="120" height="40" as="geometry" />
        </mxCell>
        <mxCell id="VPxTjBy3y0VzWbjlfLkC-15" value="新規会員登録画面&lt;br&gt;（入力）" style="whiteSpace=wrap;html=1;" vertex="1" parent="1">
          <mxGeometry x="1277" y="418" width="120" height="40" as="geometry" />
        </mxCell>
        <mxCell id="VPxTjBy3y0VzWbjlfLkC-16" value="" style="edgeStyle=none;orthogonalLoop=1;jettySize=auto;html=1;rounded=0;exitX=0.5;exitY=1;exitDx=0;exitDy=0;" edge="1" parent="1" source="VPxTjBy3y0VzWbjlfLkC-14">
          <mxGeometry width="100" relative="1" as="geometry">
            <mxPoint x="1176.55" y="468" as="sourcePoint" />
            <mxPoint x="1177" y="498" as="targetPoint" />
          </mxGeometry>
        </mxCell>
        <mxCell id="VPxTjBy3y0VzWbjlfLkC-18" value="A" style="ellipse;whiteSpace=wrap;html=1;aspect=fixed;fontSize=16;" vertex="1" parent="1">
          <mxGeometry x="1157" y="498" width="40" height="40" as="geometry" />
        </mxCell>
        <mxCell id="VPxTjBy3y0VzWbjlfLkC-20" value="A" style="ellipse;whiteSpace=wrap;html=1;aspect=fixed;fontSize=16;" vertex="1" parent="1">
          <mxGeometry x="300" y="278" width="40" height="40" as="geometry" />
        </mxCell>
        <mxCell id="VPxTjBy3y0VzWbjlfLkC-21" value="" style="edgeStyle=none;orthogonalLoop=1;jettySize=auto;html=1;rounded=0;exitX=0;exitY=0.5;exitDx=0;exitDy=0;entryX=1.105;entryY=0.6;entryDx=0;entryDy=0;entryPerimeter=0;" edge="1" parent="1" source="VPxTjBy3y0VzWbjlfLkC-20" target="VPxTjBy3y0VzWbjlfLkC-7">
          <mxGeometry width="100" relative="1" as="geometry">
            <mxPoint x="280" y="315" as="sourcePoint" />
            <mxPoint x="280" y="355" as="targetPoint" />
          </mxGeometry>
        </mxCell>
        <mxCell id="VPxTjBy3y0VzWbjlfLkC-23" value="" style="edgeStyle=none;orthogonalLoop=1;jettySize=auto;html=1;rounded=0;entryX=0.5;entryY=0;entryDx=0;entryDy=0;" edge="1" parent="1" target="VPxTjBy3y0VzWbjlfLkC-14">
          <mxGeometry width="100" relative="1" as="geometry">
            <mxPoint x="1177" y="380" as="sourcePoint" />
            <mxPoint x="1339.78" y="423" as="targetPoint" />
          </mxGeometry>
        </mxCell>
        <mxCell id="VPxTjBy3y0VzWbjlfLkC-25" value="会員情報登録画面&lt;br&gt;（確認）" style="whiteSpace=wrap;html=1;" vertex="1" parent="1">
          <mxGeometry x="1277" y="498" width="120" height="40" as="geometry" />
        </mxCell>
        <mxCell id="VPxTjBy3y0VzWbjlfLkC-26" value="" style="edgeStyle=none;orthogonalLoop=1;jettySize=auto;html=1;rounded=0;exitX=0.5;exitY=1;exitDx=0;exitDy=0;entryX=0.5;entryY=0;entryDx=0;entryDy=0;" edge="1" parent="1" source="VPxTjBy3y0VzWbjlfLkC-15" target="VPxTjBy3y0VzWbjlfLkC-25">
          <mxGeometry width="100" relative="1" as="geometry">
            <mxPoint x="1336" y="468" as="sourcePoint" />
            <mxPoint x="1336" y="508" as="targetPoint" />
          </mxGeometry>
        </mxCell>
        <mxCell id="VPxTjBy3y0VzWbjlfLkC-27" value="会員情報確認画面&lt;br&gt;（完了）" style="whiteSpace=wrap;html=1;" vertex="1" parent="1">
          <mxGeometry x="1277" y="578" width="120" height="40" as="geometry" />
        </mxCell>
        <mxCell id="VPxTjBy3y0VzWbjlfLkC-28" value="" style="edgeStyle=none;orthogonalLoop=1;jettySize=auto;html=1;rounded=0;exitX=0.5;exitY=1;exitDx=0;exitDy=0;entryX=0.5;entryY=0;entryDx=0;entryDy=0;" edge="1" parent="1" source="VPxTjBy3y0VzWbjlfLkC-25" target="VPxTjBy3y0VzWbjlfLkC-27">
          <mxGeometry width="100" relative="1" as="geometry">
            <mxPoint x="1347" y="548" as="sourcePoint" />
            <mxPoint x="1347" y="588" as="targetPoint" />
          </mxGeometry>
        </mxCell>
        <mxCell id="VPxTjBy3y0VzWbjlfLkC-29" value="" style="edgeStyle=none;orthogonalLoop=1;jettySize=auto;html=1;rounded=0;exitX=0.5;exitY=1;exitDx=0;exitDy=0;entryX=0.5;entryY=0;entryDx=0;entryDy=0;" edge="1" parent="1" source="VPxTjBy3y0VzWbjlfLkC-27" target="VPxTjBy3y0VzWbjlfLkC-34">
          <mxGeometry width="100" relative="1" as="geometry">
            <mxPoint x="1337" y="628" as="sourcePoint" />
            <mxPoint x="1337" y="658" as="targetPoint" />
          </mxGeometry>
        </mxCell>
        <mxCell id="VPxTjBy3y0VzWbjlfLkC-33" value="" style="edgeStyle=none;orthogonalLoop=1;jettySize=auto;html=1;rounded=0;entryX=0.5;entryY=0;entryDx=0;entryDy=0;" edge="1" parent="1" target="VPxTjBy3y0VzWbjlfLkC-37">
          <mxGeometry width="100" relative="1" as="geometry">
            <mxPoint x="1337" y="638" as="sourcePoint" />
            <mxPoint x="1517" y="658" as="targetPoint" />
            <Array as="points">
              <mxPoint x="1457" y="638" />
            </Array>
          </mxGeometry>
        </mxCell>
        <mxCell id="VPxTjBy3y0VzWbjlfLkC-34" value="ログイン画面" style="whiteSpace=wrap;html=1;" vertex="1" parent="1">
          <mxGeometry x="1277" y="658" width="120" height="40" as="geometry" />
        </mxCell>
        <mxCell id="VPxTjBy3y0VzWbjlfLkC-35" value="" style="edgeStyle=none;orthogonalLoop=1;jettySize=auto;html=1;rounded=0;exitX=0.5;exitY=1;exitDx=0;exitDy=0;" edge="1" parent="1" source="VPxTjBy3y0VzWbjlfLkC-34">
          <mxGeometry width="100" relative="1" as="geometry">
            <mxPoint x="1336.55" y="708" as="sourcePoint" />
            <mxPoint x="1337" y="738" as="targetPoint" />
          </mxGeometry>
        </mxCell>
        <mxCell id="VPxTjBy3y0VzWbjlfLkC-36" value="A" style="ellipse;whiteSpace=wrap;html=1;aspect=fixed;fontSize=16;" vertex="1" parent="1">
          <mxGeometry x="1317" y="738" width="40" height="40" as="geometry" />
        </mxCell>
        <mxCell id="VPxTjBy3y0VzWbjlfLkC-37" value="B" style="ellipse;whiteSpace=wrap;html=1;aspect=fixed;fontSize=16;" vertex="1" parent="1">
          <mxGeometry x="1437" y="658" width="40" height="40" as="geometry" />
        </mxCell>
        <mxCell id="VPxTjBy3y0VzWbjlfLkC-38" value="B" style="ellipse;whiteSpace=wrap;html=1;aspect=fixed;fontSize=16;" vertex="1" parent="1">
          <mxGeometry x="1120" y="255" width="40" height="40" as="geometry" />
        </mxCell>
        <mxCell id="VPxTjBy3y0VzWbjlfLkC-39" value="" style="edgeStyle=none;orthogonalLoop=1;jettySize=auto;html=1;rounded=0;exitX=0;exitY=0.5;exitDx=0;exitDy=0;" edge="1" parent="1" source="VPxTjBy3y0VzWbjlfLkC-38">
          <mxGeometry width="100" relative="1" as="geometry">
            <mxPoint x="1106" y="274.63" as="sourcePoint" />
            <mxPoint x="1020" y="275" as="targetPoint" />
          </mxGeometry>
        </mxCell>
        <mxCell id="VPxTjBy3y0VzWbjlfLkC-41" value="IIMS活動の&lt;br&gt;アーカイブTOP" style="whiteSpace=wrap;html=1;" vertex="1" parent="1">
          <mxGeometry x="440" y="419" width="120" height="40" as="geometry" />
        </mxCell>
        <mxCell id="VPxTjBy3y0VzWbjlfLkC-42" value="各アカウントページ" style="whiteSpace=wrap;html=1;" vertex="1" parent="1">
          <mxGeometry x="600" y="419" width="120" height="40" as="geometry" />
        </mxCell>
        <mxCell id="VPxTjBy3y0VzWbjlfLkC-46" value="トピック編集&lt;br&gt;（入力）" style="whiteSpace=wrap;html=1;" vertex="1" parent="1">
          <mxGeometry x="280" y="419" width="120" height="40" as="geometry" />
        </mxCell>
        <mxCell id="VPxTjBy3y0VzWbjlfLkC-47" value="ユーザ情報編集&lt;br&gt;設定など" style="whiteSpace=wrap;html=1;" vertex="1" parent="1">
          <mxGeometry x="760" y="419" width="120" height="40" as="geometry" />
        </mxCell>
        <mxCell id="VPxTjBy3y0VzWbjlfLkC-48" value="トピック新規作成&lt;br&gt;（確認）" style="whiteSpace=wrap;html=1;" vertex="1" parent="1">
          <mxGeometry x="120" y="499" width="120" height="40" as="geometry" />
        </mxCell>
        <mxCell id="VPxTjBy3y0VzWbjlfLkC-50" value="A" style="ellipse;whiteSpace=wrap;html=1;aspect=fixed;fontSize=16;" vertex="1" parent="1">
          <mxGeometry x="160" y="579" width="40" height="40" as="geometry" />
        </mxCell>
        <mxCell id="VPxTjBy3y0VzWbjlfLkC-51" value="" style="edgeStyle=none;orthogonalLoop=1;jettySize=auto;html=1;rounded=0;exitX=0.5;exitY=1;exitDx=0;exitDy=0;entryX=0.5;entryY=0;entryDx=0;entryDy=0;" edge="1" parent="1" source="VPxTjBy3y0VzWbjlfLkC-11" target="VPxTjBy3y0VzWbjlfLkC-48">
          <mxGeometry width="100" relative="1" as="geometry">
            <mxPoint x="180" y="459" as="sourcePoint" />
            <mxPoint x="180" y="499" as="targetPoint" />
          </mxGeometry>
        </mxCell>
        <mxCell id="VPxTjBy3y0VzWbjlfLkC-52" value="" style="edgeStyle=none;orthogonalLoop=1;jettySize=auto;html=1;rounded=0;exitX=0.5;exitY=1;exitDx=0;exitDy=0;entryX=0.5;entryY=0;entryDx=0;entryDy=0;" edge="1" parent="1" source="VPxTjBy3y0VzWbjlfLkC-48" target="VPxTjBy3y0VzWbjlfLkC-50">
          <mxGeometry width="100" relative="1" as="geometry">
            <mxPoint x="230" y="549" as="sourcePoint" />
            <mxPoint x="230" y="589" as="targetPoint" />
          </mxGeometry>
        </mxCell>
        <mxCell id="VPxTjBy3y0VzWbjlfLkC-53" value="" style="edgeStyle=none;orthogonalLoop=1;jettySize=auto;html=1;rounded=0;exitX=0.5;exitY=1;exitDx=0;exitDy=0;entryX=0.5;entryY=0;entryDx=0;entryDy=0;" edge="1" parent="1" source="VPxTjBy3y0VzWbjlfLkC-46" target="VPxTjBy3y0VzWbjlfLkC-54">
          <mxGeometry width="100" relative="1" as="geometry">
            <mxPoint x="330" y="464" as="sourcePoint" />
            <mxPoint x="330" y="504" as="targetPoint" />
          </mxGeometry>
        </mxCell>
        <mxCell id="VPxTjBy3y0VzWbjlfLkC-54" value="トピック編集&lt;br&gt;（確認）" style="whiteSpace=wrap;html=1;" vertex="1" parent="1">
          <mxGeometry x="280" y="499" width="120" height="40" as="geometry" />
        </mxCell>
        <mxCell id="VPxTjBy3y0VzWbjlfLkC-55" value="" style="edgeStyle=none;orthogonalLoop=1;jettySize=auto;html=1;rounded=0;exitX=0.5;exitY=1;exitDx=0;exitDy=0;" edge="1" parent="1" source="VPxTjBy3y0VzWbjlfLkC-54">
          <mxGeometry width="100" relative="1" as="geometry">
            <mxPoint x="350" y="549" as="sourcePoint" />
            <mxPoint x="180" y="559" as="targetPoint" />
            <Array as="points">
              <mxPoint x="340" y="559" />
            </Array>
          </mxGeometry>
        </mxCell>
        <mxCell id="VPxTjBy3y0VzWbjlfLkC-56" value="アプリ説明を表示" style="whiteSpace=wrap;html=1;" vertex="1" parent="1">
          <mxGeometry x="960" y="418" width="120" height="40" as="geometry" />
        </mxCell>
        <mxCell id="VPxTjBy3y0VzWbjlfLkC-57" value="カテゴリー毎に&lt;br&gt;コンテンツ表示" style="whiteSpace=wrap;html=1;" vertex="1" parent="1">
          <mxGeometry x="440" y="499" width="120" height="40" as="geometry" />
        </mxCell>
        <mxCell id="VPxTjBy3y0VzWbjlfLkC-58" value="" style="edgeStyle=none;orthogonalLoop=1;jettySize=auto;html=1;rounded=0;exitX=0.5;exitY=1;exitDx=0;exitDy=0;entryX=0.5;entryY=0;entryDx=0;entryDy=0;" edge="1" parent="1" source="VPxTjBy3y0VzWbjlfLkC-41" target="VPxTjBy3y0VzWbjlfLkC-57">
          <mxGeometry width="100" relative="1" as="geometry">
            <mxPoint x="499.5" y="464" as="sourcePoint" />
            <mxPoint x="510" y="489" as="targetPoint" />
          </mxGeometry>
        </mxCell>
        <mxCell id="VPxTjBy3y0VzWbjlfLkC-59" value="" style="edgeStyle=none;orthogonalLoop=1;jettySize=auto;html=1;rounded=0;entryX=0.5;entryY=0;entryDx=0;entryDy=0;" edge="1" parent="1" target="VPxTjBy3y0VzWbjlfLkC-47">
          <mxGeometry width="100" relative="1" as="geometry">
            <mxPoint x="180" y="380" as="sourcePoint" />
            <mxPoint x="270" y="410" as="targetPoint" />
            <Array as="points">
              <mxPoint x="820" y="380" />
            </Array>
          </mxGeometry>
        </mxCell>
        <mxCell id="VPxTjBy3y0VzWbjlfLkC-60" value="" style="edgeStyle=none;orthogonalLoop=1;jettySize=auto;html=1;rounded=0;entryX=0.5;entryY=0;entryDx=0;entryDy=0;" edge="1" parent="1" target="VPxTjBy3y0VzWbjlfLkC-42">
          <mxGeometry width="100" relative="1" as="geometry">
            <mxPoint x="660" y="380" as="sourcePoint" />
            <mxPoint x="680" y="425" as="targetPoint" />
          </mxGeometry>
        </mxCell>
        <mxCell id="VPxTjBy3y0VzWbjlfLkC-61" value="" style="edgeStyle=none;orthogonalLoop=1;jettySize=auto;html=1;rounded=0;entryX=0.5;entryY=0;entryDx=0;entryDy=0;" edge="1" parent="1" target="VPxTjBy3y0VzWbjlfLkC-41">
          <mxGeometry width="100" relative="1" as="geometry">
            <mxPoint x="499.71000000000004" y="380" as="sourcePoint" />
            <mxPoint x="499.71000000000004" y="419" as="targetPoint" />
          </mxGeometry>
        </mxCell>
        <mxCell id="VPxTjBy3y0VzWbjlfLkC-62" value="" style="edgeStyle=none;orthogonalLoop=1;jettySize=auto;html=1;rounded=0;entryX=0.5;entryY=0;entryDx=0;entryDy=0;" edge="1" parent="1" target="VPxTjBy3y0VzWbjlfLkC-46">
          <mxGeometry width="100" relative="1" as="geometry">
            <mxPoint x="340" y="380" as="sourcePoint" />
            <mxPoint x="350.28999999999996" y="429" as="targetPoint" />
          </mxGeometry>
        </mxCell>
      </root>
    </mxGraphModel>
  </diagram>
</mxfile>
